<svg width="14" height="16" viewBox="0 0 14 16" fill="none" xmlns="http://www.w3.org/2000/svg">
    <path fill-rule="evenodd" clip-rule="evenodd" d="M12 7H2C1.44772 7 1 7.44772 1 8V14C1 14.5523 1.44772 15 2 15H12C12.5523 15 13 14.5523 13 14V8C13 7.44772 12.5523 7 12 7ZM2 6C0.895431 6 0 6.89543 0 8V14C0 15.1046 0.89543 16 2 16H12C13.1046 16 14 15.1046 14 14V8C14 6.89543 13.1046 6 12 6H2Z" fill="#00FFC4"/>
    <path fill-rule="evenodd" clip-rule="evenodd" d="M10 6V4C10 2.34315 8.65685 1 7 1C5.34315 1 4 2.34315 4 4V6H10ZM7 0C4.79086 0 3 1.79086 3 4V7H11V4C11 1.79086 9.20914 0 7 0Z" fill="#00FFC4"/>
    <path d="M8 11C8 11.5523 7.55228 12 7 12C6.44772 12 6 11.5523 6 11C6 10.4477 6.44772 10 7 10C7.55228 10 8 10.4477 8 11Z" fill="#C4C4C4"/>
    <path d="M11 11C11 11.5523 10.5523 12 10 12C9.44772 12 9 11.5523 9 11C9 10.4477 9.44772 10 10 10C10.5523 10 11 10.4477 11 11Z" fill="#C4C4C4"/>
    <path d="M5 11C5 11.5523 4.55228 12 4 12C3.44772 12 3 11.5523 3 11C3 10.4477 3.44772 10 4 10C4.55228 10 5 10.4477 5 11Z" fill="#C4C4C4"/>
    </svg>
