<svg width="226" height="47" viewBox="0 0 226 47" fill="none" xmlns="http://www.w3.org/2000/svg">
<path d="M83.904 40C81.7573 40 80.1707 39.496 79.144 38.488C78.136 37.4613 77.632 35.8747 77.632 33.728V22.192C77.632 21.408 78.024 21.016 78.808 21.016C79.592 21.016 79.984 21.408 79.984 22.192V33.728C79.984 34.7547 80.1053 35.548 80.348 36.108C80.5907 36.6493 80.9827 37.0413 81.524 37.284C82.084 37.5267 82.8773 37.648 83.904 37.648H87.264C88.2907 37.648 89.0747 37.5267 89.616 37.284C90.176 37.0413 90.5773 36.6493 90.82 36.108C91.0627 35.548 91.184 34.7547 91.184 33.728V22.192C91.184 21.408 91.576 21.016 92.36 21.016C93.144 21.016 93.536 21.408 93.536 22.192V33.728C93.536 35.8747 93.0227 37.4613 91.996 38.488C90.988 39.496 89.4107 40 87.264 40H83.904ZM102.408 40C100.037 40 98.6561 39.02 98.2641 37.06C98.2454 37.004 98.2361 36.92 98.2361 36.808C98.2361 36.4907 98.3387 36.248 98.5441 36.08C98.7681 35.8933 99.0574 35.8 99.4121 35.8C99.7667 35.8 100.037 35.8933 100.224 36.08C100.411 36.248 100.56 36.5373 100.672 36.948C100.784 37.228 100.961 37.4147 101.204 37.508C101.465 37.6013 101.867 37.648 102.408 37.648H107C107.728 37.648 108.213 37.5267 108.456 37.284C108.717 37.0413 108.848 36.5467 108.848 35.8C108.848 35.0533 108.717 34.5587 108.456 34.316C108.213 34.0733 107.728 33.952 107 33.952H102.492C99.7854 33.952 98.4321 32.5987 98.4321 29.892C98.4321 28.5107 98.7681 27.484 99.4401 26.812C100.112 26.14 101.129 25.804 102.492 25.804H106.86C109.063 25.804 110.36 26.728 110.752 28.576C110.771 28.632 110.78 28.716 110.78 28.828C110.78 29.1267 110.668 29.3693 110.444 29.556C110.239 29.724 109.959 29.808 109.604 29.808C109.249 29.808 108.979 29.724 108.792 29.556C108.624 29.3693 108.484 29.0893 108.372 28.716C108.26 28.492 108.092 28.3427 107.868 28.268C107.644 28.1933 107.308 28.156 106.86 28.156H102.492C102.007 28.156 101.643 28.2027 101.4 28.296C101.157 28.3707 100.989 28.5293 100.896 28.772C100.821 29.0147 100.784 29.388 100.784 29.892C100.784 30.564 100.896 31.0213 101.12 31.264C101.344 31.488 101.801 31.6 102.492 31.6H107C109.8 31.6 111.2 33 111.2 35.8C111.2 38.6 109.8 40 107 40H102.408ZM117.873 33.868V34.54C117.873 35.3613 117.967 35.996 118.153 36.444C118.34 36.8733 118.657 37.1813 119.105 37.368C119.553 37.5547 120.188 37.648 121.009 37.648H123.305C124.257 37.648 124.957 37.564 125.405 37.396C125.872 37.2093 126.18 36.892 126.329 36.444C126.441 36.0707 126.591 35.8 126.777 35.632C126.964 35.4453 127.235 35.352 127.589 35.352C127.944 35.352 128.215 35.436 128.401 35.604C128.607 35.7533 128.709 35.9773 128.709 36.276C128.709 36.4067 128.7 36.5 128.681 36.556C128.271 38.852 126.479 40 123.305 40H121.009C119.143 40 117.761 39.552 116.865 38.656C115.969 37.76 115.521 36.388 115.521 34.54V31.292C115.521 29.4067 115.969 28.016 116.865 27.12C117.761 26.224 119.143 25.7853 121.009 25.804H123.305C125.172 25.804 126.553 26.252 127.449 27.148C128.345 28.044 128.793 29.4253 128.793 31.292V32.692C128.793 33.0653 128.691 33.3547 128.485 33.56C128.28 33.7653 127.991 33.868 127.617 33.868H117.873ZM117.873 31.516H126.441V31.292C126.441 30.4707 126.348 29.836 126.161 29.388C125.975 28.94 125.657 28.6227 125.209 28.436C124.761 28.2493 124.127 28.156 123.305 28.156H121.009C120.188 28.1373 119.553 28.2213 119.105 28.408C118.657 28.5947 118.34 28.912 118.153 29.36C117.967 29.808 117.873 30.452 117.873 31.292V31.516ZM141.331 25.804C141.705 25.804 141.994 25.9067 142.199 26.112C142.405 26.3173 142.507 26.6067 142.507 26.98C142.507 27.3533 142.405 27.6427 142.199 27.848C141.994 28.0533 141.705 28.156 141.331 28.156C139.745 28.156 138.513 28.4547 137.635 29.052C136.777 29.6307 136.329 30.424 136.291 31.432V38.824C136.291 39.1973 136.189 39.4867 135.983 39.692C135.778 39.8973 135.489 40 135.115 40C134.742 40 134.453 39.8973 134.247 39.692C134.042 39.4867 133.939 39.1973 133.939 38.824V26.98C133.939 26.196 134.331 25.804 135.115 25.804C135.899 25.804 136.291 26.196 136.291 26.98V28.072C137.43 26.56 139.11 25.804 141.331 25.804ZM151.489 40C149.342 40 147.755 39.496 146.729 38.488C145.721 37.4613 145.217 35.8747 145.217 33.728V27.288C145.217 25.1413 145.721 23.5547 146.729 22.528C147.755 21.5013 149.333 20.9973 151.461 21.016H154.849C156.603 21.016 157.938 21.38 158.853 22.108C159.786 22.836 160.327 23.9747 160.477 25.524C160.533 25.916 160.458 26.2147 160.253 26.42C160.047 26.6253 159.749 26.728 159.357 26.728C158.983 26.728 158.694 26.6347 158.489 26.448C158.302 26.2427 158.181 25.944 158.125 25.552C158.031 24.712 157.742 24.1427 157.257 23.844C156.771 23.5267 155.969 23.368 154.849 23.368H151.461C150.453 23.3493 149.669 23.4613 149.109 23.704C148.549 23.9467 148.147 24.348 147.905 24.908C147.681 25.468 147.569 26.2613 147.569 27.288V33.728C147.569 34.7547 147.69 35.548 147.933 36.108C148.175 36.6493 148.567 37.0413 149.109 37.284C149.669 37.5267 150.462 37.648 151.489 37.648H154.849C155.969 37.648 156.771 37.4987 157.257 37.2C157.742 36.8827 158.031 36.304 158.125 35.464C158.181 35.072 158.302 34.7827 158.489 34.596C158.694 34.3907 158.983 34.288 159.357 34.288C159.749 34.288 160.047 34.3907 160.253 34.596C160.458 34.8013 160.533 35.1 160.477 35.492C160.327 37.0413 159.786 38.18 158.853 38.908C157.938 39.636 156.603 40 154.849 40H151.489ZM169.613 40C168.194 40 167.13 39.6547 166.421 38.964C165.73 38.2547 165.385 37.1813 165.385 35.744V21.464C165.385 21.0907 165.487 20.8013 165.693 20.596C165.898 20.3907 166.187 20.288 166.561 20.288C166.934 20.288 167.223 20.3907 167.429 20.596C167.634 20.8013 167.737 21.0907 167.737 21.464V35.744C167.737 36.5093 167.858 37.0227 168.101 37.284C168.362 37.5267 168.866 37.648 169.613 37.648C170.415 37.648 170.817 38.04 170.817 38.824C170.835 39.1973 170.742 39.4867 170.537 39.692C170.331 39.8973 170.023 40 169.613 40ZM179.251 40C177.385 40 176.003 39.552 175.107 38.656C174.211 37.76 173.763 36.388 173.763 34.54V31.292C173.763 29.4253 174.211 28.044 175.107 27.148C176.003 26.252 177.385 25.804 179.251 25.804H181.547C183.414 25.804 184.795 26.252 185.691 27.148C186.587 28.044 187.035 29.4253 187.035 31.292V34.512C187.035 36.3787 186.587 37.76 185.691 38.656C184.795 39.552 183.414 40 181.547 40H179.251ZM181.547 37.648C182.369 37.648 183.003 37.5547 183.451 37.368C183.899 37.1813 184.217 36.864 184.403 36.416C184.59 35.968 184.683 35.3333 184.683 34.512V31.292C184.683 30.4707 184.59 29.836 184.403 29.388C184.217 28.94 183.899 28.6227 183.451 28.436C183.003 28.2493 182.369 28.156 181.547 28.156H179.251C178.411 28.156 177.767 28.2493 177.319 28.436C176.89 28.6227 176.582 28.94 176.395 29.388C176.209 29.8173 176.115 30.452 176.115 31.292V34.54C176.115 35.3613 176.209 35.996 176.395 36.444C176.582 36.8733 176.899 37.1813 177.347 37.368C177.795 37.5547 178.43 37.648 179.251 37.648H181.547ZM203.718 25.804C204.091 25.804 204.38 25.9067 204.586 26.112C204.791 26.3173 204.894 26.6067 204.894 26.98V38.824C204.894 39.608 204.502 40 203.718 40C202.934 40 202.542 39.608 202.542 38.824V38.348C201.552 39.4493 200.096 40 198.174 40H197.39C195.523 40 194.142 39.552 193.246 38.656C192.35 37.76 191.902 36.3787 191.902 34.512V26.98C191.902 26.6067 192.004 26.3173 192.21 26.112C192.415 25.9067 192.704 25.804 193.078 25.804C193.451 25.804 193.74 25.9067 193.946 26.112C194.151 26.3173 194.254 26.6067 194.254 26.98V34.512C194.254 35.3333 194.347 35.968 194.534 36.416C194.72 36.864 195.038 37.1813 195.486 37.368C195.934 37.5547 196.568 37.648 197.39 37.648H198.174C199.35 37.648 200.339 37.5173 201.142 37.256C201.963 36.976 202.43 36.5747 202.542 36.052V26.98C202.542 26.6067 202.644 26.3173 202.85 26.112C203.055 25.9067 203.344 25.804 203.718 25.804ZM222.145 20.288C222.518 20.288 222.807 20.3907 223.013 20.596C223.218 20.8013 223.321 21.0907 223.321 21.464V38.824C223.321 39.1973 223.218 39.4867 223.013 39.692C222.807 39.8973 222.518 40 222.145 40C221.771 40 221.482 39.8973 221.277 39.692C221.071 39.4867 220.969 39.1973 220.969 38.824V38.628C220.502 39.0947 219.914 39.44 219.205 39.664C218.514 39.888 217.646 40 216.601 40H215.537C213.67 40 212.289 39.552 211.393 38.656C210.497 37.76 210.049 36.3787 210.049 34.512V31.292C210.049 29.4253 210.497 28.044 211.393 27.148C212.289 26.252 213.67 25.804 215.537 25.804H220.969V21.464C220.969 21.0907 221.071 20.8013 221.277 20.596C221.482 20.3907 221.771 20.288 222.145 20.288ZM216.601 37.648C217.889 37.648 218.934 37.4893 219.737 37.172C220.558 36.836 220.969 36.3507 220.969 35.716V28.156H215.537C214.715 28.156 214.081 28.2493 213.633 28.436C213.185 28.6227 212.867 28.94 212.681 29.388C212.494 29.836 212.401 30.4707 212.401 31.292V34.512C212.401 35.3333 212.494 35.968 212.681 36.416C212.867 36.864 213.185 37.1813 213.633 37.368C214.081 37.5547 214.715 37.648 215.537 37.648H216.601Z" fill="white"/>
<line x1="68" y1="38.5" x2="223.3" y2="38.5" stroke="white" stroke-width="3"/>
<path d="M60.3216 19.028C59.6956 8.45295 50.9165 0 40.3339 0C33.9084 0 27.6864 3.12902 23.8311 8.2344C23.7424 8.18857 23.6489 8.15685 23.559 8.11455C23.3247 8.00175 23.0868 7.89482 22.8442 7.79847C22.7094 7.7456 22.5744 7.69742 22.4384 7.65042C22.1981 7.567 21.9544 7.49297 21.7059 7.426C21.5698 7.38957 21.4349 7.35198 21.2976 7.32143C21.0314 7.2615 20.7592 7.21568 20.4847 7.17455C20.3652 7.15693 20.248 7.13342 20.1273 7.1205C19.7345 7.07702 19.3368 7.05 18.9333 7.05C13.0604 7.05 8.28333 11.7935 8.28333 17.625C8.28333 17.7742 8.2928 17.9211 8.30227 18.068V18.0727C3.38078 20.7376 0 26.3188 0 31.9059C0 40.2285 6.81837 47 15.1999 47H44.201C44.3241 47 44.446 46.9929 44.5691 46.9835L44.6424 46.9741L44.801 46.9835C44.9217 46.9929 45.0424 47 45.1666 47H56.7669C64.6147 47 71 40.6597 71 32.8671C71 26.4175 66.4714 20.633 60.3216 19.028ZM56.7669 44.65H45.1666C45.0968 44.65 45.0294 44.6441 44.9607 44.6394L44.6401 44.6265L44.4058 44.6394C44.3383 44.6441 44.2697 44.65 44.201 44.65H15.1999C8.12358 44.65 2.36667 38.9336 2.36667 31.9059C2.36667 27.025 5.56758 21.9584 9.97905 19.8587L10.65 19.5402V18.8C10.65 18.6508 10.6595 18.4992 10.6678 18.3464L10.6784 18.1584L10.6642 17.9117C10.6571 17.8165 10.65 17.7213 10.65 17.625C10.65 13.0907 14.3668 9.4 18.9333 9.4C19.299 9.4 19.6599 9.43172 20.0184 9.47872C20.1108 9.49047 20.203 9.50575 20.2942 9.52103C20.6101 9.57273 20.9213 9.64087 21.2278 9.729C21.2692 9.74075 21.3118 9.74897 21.3532 9.76072C21.6905 9.86295 22.0195 9.9922 22.3413 10.1379C22.4253 10.1755 22.507 10.2166 22.5898 10.2566C22.8738 10.3964 23.1519 10.5491 23.4205 10.7219C25.7008 12.1883 27.2167 14.7322 27.2167 17.625C27.2167 18.2748 27.7456 18.8 28.4 18.8C29.0544 18.8 29.5833 18.2748 29.5833 17.625C29.5833 14.3891 28.1089 11.4927 25.7967 9.55157C29.1893 5.14532 34.7758 2.35 40.3339 2.35C49.4988 2.35 57.11 9.55863 57.904 18.6684C56.6947 18.5838 54.8842 18.5403 53.0725 18.8141C52.4264 18.9116 51.9826 19.5109 52.0809 20.1524C52.1696 20.734 52.6737 21.1512 53.2488 21.1512C53.308 21.1512 53.3683 21.1465 53.4275 21.1371C56.0628 20.7411 58.8093 21.1124 58.9702 21.1347C64.4798 22.1746 68.6333 27.2142 68.6333 32.8671C68.6333 39.3637 63.3095 44.65 56.7669 44.65Z" fill="#00FFC4"/>
<path d="M15 38.5L22 38.5" stroke="white" stroke-width="3"/>
<path d="M58 38.5L66 38.5" stroke="white" stroke-width="3"/>
<path d="M25 38.5L33 38.5" stroke="white" stroke-width="3"/>
<path d="M36 38.5L44 38.5" stroke="white" stroke-width="3"/>
<path d="M47 38.5L55 38.5" stroke="white" stroke-width="3"/>
</svg>
