<svg width="16" height="14" viewBox="0 0 16 14" fill="none" xmlns="http://www.w3.org/2000/svg">
    <path d="M14.0468 0.911865H1.95655C0.877302 0.911865 0 1.78917 0 2.86841V11.1316C0 12.2109 0.877302 13.0882 1.95655 13.0882H14.0435C15.1227 13.0882 16 12.2109 16 11.1316V2.87172C16.0033 1.79248 15.126 0.911865 14.0468 0.911865ZM15.1095 11.1316C15.1095 11.7176 14.6327 12.1943 14.0468 12.1943H1.95655C1.37058 12.1943 0.893855 11.7176 0.893855 11.1316V2.87172C0.893855 2.28575 1.37058 1.80903 1.95655 1.80903H14.0435C14.6294 1.80903 15.1061 2.28575 15.1061 2.87172V11.1316H15.1095Z" fill="#00FFC4"/>
    <path d="M10.0906 6.89743L14.0037 3.38822C14.1858 3.22269 14.2024 2.94129 14.0368 2.7559C13.8713 2.57382 13.5899 2.55726 13.4045 2.72279L8.00827 7.56616L6.95551 6.62596C6.9522 6.62265 6.94889 6.61934 6.94889 6.61603C6.92571 6.59285 6.90254 6.57299 6.87606 6.55313L2.59217 2.71948C2.40678 2.55395 2.12538 2.57051 1.95985 2.7559C1.79433 2.94129 1.81088 3.22269 1.99627 3.38822L5.95572 6.92722L2.01282 10.6185C1.83405 10.7873 1.82412 11.0687 1.99296 11.2508C2.08235 11.3435 2.20153 11.3932 2.32071 11.3932C2.42996 11.3932 2.5392 11.3535 2.62528 11.274L6.62776 7.52975L7.71363 8.49974C7.79971 8.57589 7.90564 8.6123 8.01158 8.6123C8.11752 8.6123 8.22677 8.57258 8.30953 8.49643L9.4252 7.49664L13.4045 11.2773C13.4906 11.3601 13.6031 11.3998 13.7124 11.3998C13.8316 11.3998 13.9474 11.3535 14.0368 11.2608C14.2057 11.082 14.199 10.7973 14.0203 10.6284L10.0906 6.89743Z" fill="#D4D4D4"/>
    </svg>
