<svg width="31" height="31" viewBox="0 0 31 31" fill="none" xmlns="http://www.w3.org/2000/svg">
    <circle cx="15.5" cy="15.5" r="15" stroke="#00FFC4" />
    <path d="M21.6949 16.7181C20.7407 15.764 19.6049 15.0576 18.3657 14.63C19.6929 13.7159 20.5649 12.186 20.5649 10.4562C20.5649 7.66341 18.2928 5.3913 15.5 5.3913C12.7072 5.3913 10.4351 7.66341 10.4351 10.4562C10.4351 12.186 11.3071 13.7159 12.6343 14.63C11.3951 15.0576 10.2594 15.764 9.30515 16.7181C7.65044 18.3729 6.73914 20.5729 6.73914 22.913H8.10802C8.10802 18.8371 11.424 15.5211 15.5 15.5211C19.576 15.5211 22.892 18.8371 22.892 22.913H24.2609C24.2609 20.5729 23.3496 18.3729 21.6949 16.7181ZM15.5 14.1522C13.462 14.1522 11.804 12.4942 11.804 10.4562C11.804 8.41818 13.462 6.76018 15.5 6.76018C17.538 6.76018 19.196 8.41818 19.196 10.4562C19.196 12.4942 17.538 14.1522 15.5 14.1522Z" fill="#00FFC4" />
    <path d="M14.0175 17.9261C11.4566 18.1956 10.1087 20.8913 10.1087 22.913" stroke="#D4D4D4" />
</svg>
