<svg width="18" height="15" viewBox="0 0 18 15" fill="none" xmlns="http://www.w3.org/2000/svg">
    <path d="M17.8856 7.38616C17.7248 7.16618 13.8934 2 8.99991 2C4.10647 2 0.274852 7.16618 0.114223 7.38595C-0.0380743 7.59463 -0.0380743 7.87768 0.114223 8.08637C0.274852 8.30634 4.10647 13.4725 8.99991 13.4725C13.8934 13.4725 17.7248 8.3063 17.8856 8.08654C18.0381 7.87789 18.0381 7.59463 17.8856 7.38616ZM8.99991 12.2857C5.39537 12.2857 2.27345 8.85682 1.3493 7.73586C2.27226 6.61391 5.38764 3.18681 8.99991 3.18681C12.6043 3.18681 15.726 6.61511 16.6505 7.73667C15.7276 8.85857 12.6122 12.2857 8.99991 12.2857Z" fill="#D4D4D4"/>
    <path d="M8.8938 4.34778C7.01051 4.34778 5.47827 5.88002 5.47827 7.76331C5.47827 9.6466 7.01051 11.1788 8.8938 11.1788C10.7771 11.1788 12.3093 9.6466 12.3093 7.76331C12.3093 5.88002 10.7771 4.34778 8.8938 4.34778ZM8.8938 10.0403C7.63821 10.0403 6.6168 9.01887 6.6168 7.76331C6.6168 6.50775 7.63824 5.48631 8.8938 5.48631C10.1494 5.48631 11.1708 6.50775 11.1708 7.76331C11.1708 9.01887 10.1494 10.0403 8.8938 10.0403Z" fill="#D4D4D4"/>
    <line x1="14.5282" y1="14.3707" x2="3.52821" y2="0.370693" stroke="#00FFC4" stroke-width="1.2"/>
    </svg>
