<svg width="18" height="15" viewBox="0 0 18 12" fill="none" xmlns="http://www.w3.org/2000/svg">
    <path d="M17.8856 5.38616C17.7248 5.16618 13.8934 0 8.99991 0C4.10647 0 0.274852 5.16618 0.114223 5.38595C-0.0380743 5.59463 -0.0380743 5.87768 0.114223 6.08637C0.274852 6.30634 4.10647 11.4725 8.99991 11.4725C13.8934 11.4725 17.7248 6.3063 17.8856 6.08654C18.0381 5.87789 18.0381 5.59463 17.8856 5.38616ZM8.99991 10.2857C5.39537 10.2857 2.27345 6.85682 1.3493 5.73586C2.27226 4.61391 5.38764 1.18681 8.99991 1.18681C12.6043 1.18681 15.726 4.61511 16.6505 5.73667C15.7276 6.85857 12.6122 10.2857 8.99991 10.2857Z" fill="#D4D4D4" />
    <path d="M8.8938 2.34778C7.01051 2.34778 5.47827 3.88002 5.47827 5.76331C5.47827 7.6466 7.01051 9.17884 8.8938 9.17884C10.7771 9.17884 12.3093 7.6466 12.3093 5.76331C12.3093 3.88002 10.7771 2.34778 8.8938 2.34778ZM8.8938 8.04031C7.63821 8.04031 6.6168 7.01887 6.6168 5.76331C6.6168 4.50775 7.63824 3.48631 8.8938 3.48631C10.1494 3.48631 11.1708 4.50775 11.1708 5.76331C11.1708 7.01887 10.1494 8.04031 8.8938 8.04031Z" fill="#D4D4D4" />
</svg>
